<?xml version="1.0" encoding="utf-8"?>
<!-- Generator: Adobe Illustrator 19.2.1, SVG Export Plug-In . SVG Version: 6.00 Build 0)  -->
<svg version="1.1" id="Capa_1" xmlns="http://www.w3.org/2000/svg" xmlns:xlink="http://www.w3.org/1999/xlink" x="0px" y="0px"
	 viewBox="0 0 1600 900" style="enable-background:new 0 0 1600 900;" xml:space="preserve">
<style type="text/css">
	.st0{fill:#FFFFFF;}
	.st1{fill:#FFFFFF;fill-opacity:0;stroke:url(#SVGID_1_);stroke-width:2;stroke-miterlimit:10;}
	.st2{fill:#FFFFFF;fill-opacity:0;stroke:url(#SVGID_2_);stroke-width:4;stroke-miterlimit:10;}
	.st3{fill:#FFFFFF;fill-opacity:0;stroke:url(#SVGID_3_);stroke-width:2;stroke-miterlimit:10;}
	.st4{fill:#FFFFFF;fill-opacity:0;stroke:url(#SVGID_4_);stroke-width:2;stroke-miterlimit:10;}
	.st5{fill:#FFFFFF;fill-opacity:0;stroke:url(#SVGID_5_);stroke-width:2;stroke-miterlimit:10;}
	.st6{fill:#FFFFFF;fill-opacity:0;stroke:url(#SVGID_6_);stroke-width:4;stroke-miterlimit:10;}
	.st7{fill:#FFFFFF;fill-opacity:0;stroke:url(#SVGID_7_);stroke-width:8;stroke-miterlimit:10;}
	.st8{fill:#FFFFFF;fill-opacity:0;stroke:url(#SVGID_8_);stroke-width:4;stroke-miterlimit:10;}
	.st9{fill:#FFFFFF;fill-opacity:0;stroke:url(#SVGID_9_);stroke-width:4;stroke-miterlimit:10;}
</style>
<rect y="0" class="st0" width="1600" height="900"/>
<g>
	<g>
		
			<linearGradient id="SVGID_1_" gradientUnits="userSpaceOnUse" x1="495.5268" y1="869.2337" x2="495.5268" y2="870.2127" gradientTransform="matrix(81 0 0 -70 -38751 61431.3008)">
			<stop  offset="0" style="stop-color:#00FFFF"/>
			<stop  offset="1" style="stop-color:#CCFF66"/>
		</linearGradient>
		<path class="st1" d="M1351,583.5l37.7-63.8l36.1,63.8H1351z"/>
		
			<linearGradient id="SVGID_2_" gradientUnits="userSpaceOnUse" x1="496.5107" y1="868.6832" x2="496.5107" y2="869.6655" gradientTransform="matrix(80 0 0 -80 -39198 69679.2031)">
			<stop  offset="0" style="stop-color:#00FFFF"/>
			<stop  offset="1" style="stop-color:#CCFF66"/>
		</linearGradient>
		<circle class="st2" cx="522.9" cy="145.3" r="36.4"/>
		
			<linearGradient id="SVGID_3_" gradientUnits="userSpaceOnUse" x1="496.9273" y1="869.7983" x2="496.9273" y2="870.7687" gradientTransform="matrix(83.73 0 0 -41.87 -41213.3359 37143.9219)">
			<stop  offset="0" style="stop-color:#00FFFF"/>
			<stop  offset="1" style="stop-color:#CCFF66"/>
		</linearGradient>
		<path class="st3" d="M432.5,724.2h-76.3c0-21.1,17.1-38.1,38.1-38.1C415.5,686.1,432.5,703.2,432.5,724.2z"/>
		
			<linearGradient id="SVGID_4_" gradientUnits="userSpaceOnUse" x1="489.6387" y1="872.6343" x2="489.6387" y2="873.6133" gradientTransform="matrix(81 0 0 -70 -38751 61431.3008)">
			<stop  offset="0" style="stop-color:#00FFFF"/>
			<stop  offset="1" style="stop-color:#CCFF66"/>
		</linearGradient>
		<path class="st4" d="M874.1,345.4l37.7-63.8l36.1,63.8H874.1z"/>
		
			<linearGradient id="SVGID_5_" gradientUnits="userSpaceOnUse" x1="506.271" y1="876.7213" x2="506.271" y2="877.7213" gradientTransform="matrix(83.73 0 0 -41.87 -41213.3359 37143.9219)">
			<stop  offset="0" style="stop-color:#00FFFF"/>
			<stop  offset="1" style="stop-color:#CCFF66"/>
		</linearGradient>
		<path class="st5" d="M1218.6,435.6h-83.7c0-23.1,18.7-41.9,41.9-41.9S1218.6,412.5,1218.6,435.6z"/>
	</g>
	<g>
		
			<linearGradient id="SVGID_6_" gradientUnits="userSpaceOnUse" x1="495.3664" y1="869.9789" x2="495.3664" y2="868.9922" gradientTransform="matrix(62.8 0 0 -89.2 -30905.1973 77967.375)">
			<stop  offset="0" style="stop-color:#FF0000"/>
			<stop  offset="1" style="stop-color:#FFCC00"/>
		</linearGradient>
		<path class="st6" d="M203.8,368.6l-28.6,40.6l28.6,40.6l28.6-40.6L203.8,368.6z"/>
		
			<linearGradient id="SVGID_7_" gradientUnits="userSpaceOnUse" x1="496.3211" y1="870.5627" x2="496.3211" y2="869.5726" gradientTransform="matrix(100 0 0 -100 -48659 87726)">
			<stop  offset="0" style="stop-color:#FF0000"/>
			<stop  offset="1" style="stop-color:#FFCC00"/>
		</linearGradient>
		<rect x="927.6" y="673.7" class="st7" width="91.1" height="91.1"/>
		
			<linearGradient id="SVGID_8_" gradientUnits="userSpaceOnUse" x1="495.868" y1="869.6837" x2="495.868" y2="868.7015" gradientTransform="matrix(84.1001 0 0 -72.8 -40373.5508 63451.9961)">
			<stop  offset="0" style="stop-color:#FF0000"/>
			<stop  offset="1" style="stop-color:#FFCC00"/>
		</linearGradient>
		<path class="st8" d="M1367.2,174.8l-19.2,33.2h-38.3l-19.1-33.2l19.1-33.2h38.3L1367.2,174.8z"/>
		
			<linearGradient id="SVGID_9_" gradientUnits="userSpaceOnUse" x1="487.5272" y1="865.4488" x2="487.5272" y2="864.4666" gradientTransform="matrix(84.1001 0 0 -72.8 -40373.5508 63451.9961)">
			<stop  offset="0" style="stop-color:#FF0000"/>
			<stop  offset="1" style="stop-color:#FFCC00"/>
		</linearGradient>
		<path class="st9" d="M665.8,483.1l-19.2,33.2h-38.3l-19.1-33.2l19.1-33.2h38.3L665.8,483.1z"/>
	</g>
</g>
</svg>
